<?xml version="1.0" encoding="UTF-8" standalone="no"?>
<!-- Created with Inkscape (http://www.inkscape.org/) -->

<svg
   width="512"
   height="512"
   viewBox="0 0 512 512"
   version="1.1"
   id="svg1"
   xml:space="preserve"
   inkscape:version="1.3 (0e150ed6c4, 2023-07-21)"
   sodipodi:docname="icon.svg"
   xmlns:inkscape="http://www.inkscape.org/namespaces/inkscape"
   xmlns:sodipodi="http://sodipodi.sourceforge.net/DTD/sodipodi-0.dtd"
   xmlns="http://www.w3.org/2000/svg"
   xmlns:svg="http://www.w3.org/2000/svg"><sodipodi:namedview
     id="namedview1"
     pagecolor="#ffffff"
     bordercolor="#666666"
     borderopacity="1.0"
     inkscape:showpageshadow="2"
     inkscape:pageopacity="0.0"
     inkscape:pagecheckerboard="0"
     inkscape:deskcolor="#d1d1d1"
     inkscape:document-units="mm"
     showgrid="false"
     showguides="false"
     inkscape:zoom="1"
     inkscape:cx="343"
     inkscape:cy="38.5"
     inkscape:window-width="2544"
     inkscape:window-height="1390"
     inkscape:window-x="1928"
     inkscape:window-y="42"
     inkscape:window-maximized="1"
     inkscape:current-layer="layer1" /><defs
     id="defs1" /><g
     inkscape:label="Layer 1"
     inkscape:groupmode="layer"
     id="layer1"><rect
       style="fill:#bdbdbd;fill-opacity:1;stroke:none;stroke-opacity:0"
       id="rect19"
       width="512"
       height="512"
       x="0"
       y="0" /><path
       id="path18"
       style="fill:#626262;stroke:#000000;stroke-width:1px;stroke-linecap:butt;stroke-linejoin:miter;stroke-opacity:0;fill-opacity:1"
       d="M 60.816406 512 L 93.822266 512 L 99.115234 504.91797 L 402.21484 504.91797 L 406.45117 512 L 434.79297 512 L 328.72461 370.35938 L 321.75391 370.44336 L 322.41602 371.55078 L 199.33203 371.55078 L 197.34375 373.46289 L 200.29297 369.51562 L 189.87305 369.99805 L 60.816406 512 z M 193.55273 378.53516 L 326.5957 378.53516 L 337.94727 397.50781 L 179.37695 397.50781 L 193.55273 378.53516 z M 172.39453 406.85156 L 343.53711 406.85156 L 358.27734 431.48633 L 153.98633 431.48633 L 172.39453 406.85156 z M 145.00586 443.50391 L 365.46875 443.50391 L 392.48242 488.65234 L 111.26953 488.65234 L 145.00586 443.50391 z " /><path
       id="path17"
       style="fill:#000000;fill-opacity:0.257458;stroke:none;stroke-width:1px;stroke-linecap:butt;stroke-linejoin:miter;stroke-opacity:0.26"
       d="M 512,486.16211 V 207.35938 L 271.04839,126.95808 204.5625,260.84766 157.90664,377.24012 Z"
       sodipodi:nodetypes="cccccc" /><path
       id="path1"
       style="fill:#883a18;stroke:#ffffff;fill-opacity:1;stroke-width:3.26929134;stroke-dasharray:none;stroke-opacity:1"
       d="M 258.36914 125.66797 C 247.80886 125.52226 238.75 129.42383 238.75 129.42383 L 243.44922 164.32422 A 62.500668 62.500668 0 0 0 193.89844 225.3125 A 62.500668 62.500668 0 0 0 196.16992 241.72461 A 104.75249 115.0092 0 0 0 152.06836 335.25586 A 104.75249 115.0092 0 0 0 159.00977 375.60547 L 354.62891 375.60547 A 104.75249 115.0092 0 0 0 361.57227 335.25586 A 104.75249 115.0092 0 0 0 316.78906 240.99219 A 62.500668 62.500668 0 0 0 318.90039 225.3125 A 62.500668 62.500668 0 0 0 270.22266 164.55664 C 270.47166 161.5399 272.37964 138.37621 272.99023 129.12109 C 268.2788 126.6356 263.16927 125.7342 258.36914 125.66797 z " /><g
       id="g2"
       transform="matrix(0.83878256,0,0,0.83878256,47.427342,52.868382)"
       style="fill:#000000;fill-opacity:0.19221519"><rect
         style="fill:#000000;fill-opacity:0.19221519;stroke:#ffffff"
         id="rect2"
         width="10.452419"
         height="80.687012"
         x="169.3735"
         y="289.03326"
         rx="8.9191856"
         ry="8.9457436" /><rect
         style="fill:#000000;fill-opacity:0.19221519;stroke:#ffffff"
         id="rect2-6"
         width="10.452419"
         height="80.687012"
         x="190.53392"
         y="289.03326"
         rx="8.9191856"
         ry="8.9457436" /><rect
         style="fill:#000000;fill-opacity:0.19221519;stroke:#ffffff"
         id="rect2-6-2"
         width="10.452419"
         height="80.687012"
         x="211.69435"
         y="289.03326"
         rx="8.9191856"
         ry="8.9457436" /><rect
         style="fill:#000000;fill-opacity:0.19221519;stroke:#ffffff"
         id="rect2-6-3"
         width="10.452419"
         height="80.687012"
         x="232.85477"
         y="289.03326"
         rx="8.9191856"
         ry="8.9457436" /><rect
         style="fill:#000000;fill-opacity:0.19221519;stroke:#ffffff"
         id="rect2-6-26"
         width="10.452419"
         height="80.687012"
         x="254.01518"
         y="289.03326"
         rx="8.9191856"
         ry="8.9457436" /><rect
         style="fill:#000000;fill-opacity:0.19221519;stroke:#ffffff"
         id="rect2-6-9"
         width="10.452419"
         height="80.687012"
         x="275.1756"
         y="289.03326"
         rx="8.9191856"
         ry="8.9457436" /><rect
         style="fill:#000000;fill-opacity:0.19221519;stroke:#ffffff"
         id="rect2-6-37"
         width="10.452419"
         height="80.687012"
         x="296.336"
         y="289.03326"
         rx="8.9191856"
         ry="8.9457436" /><rect
         style="fill:#000000;fill-opacity:0.19221519;stroke:#ffffff"
         id="rect2-6-28"
         width="10.452419"
         height="80.687012"
         x="317.49643"
         y="289.03326"
         rx="8.9191856"
         ry="8.9457436" /></g></g></svg>
